# xmcd
#
# Track frame offsets:
#	157
#	26865
#	53865
#	78165
#	104725
#	134190
#	156990
#	182265
#
# Disc length: 2789 seconds
#
# Revision: 1
# Processed by: cddbd v1.5.2PL0 Copyright (c) Steve Scherf et al.
# Submitted via: audiograbber 1.83.01
#
DISCID=6c0ae308
DTITLE=Various Artist - Saustarke Stimmungmacher CD 2
DYEAR=1900
DGENRE=
TTITLE0=Fiesta Mexicana
TTITLE1=Santo Domingo
TTITLE2=Rote Lippen soll man küssen
TTITLE3=Aber dich gibts nur einmal
TTITLE4=Du kannst nicht immer 17 sein
TTITLE5=Paradiso
TTITLE6=Schöne Maid
TTITLE7=Vom Stadtpark die Laternen
EXTD=
EXTT0=
EXTT1=
EXTT2=
EXTT3=
EXTT4=
EXTT5=
EXTT6=
EXTT7=
PLAYORDER=
